<svg width="173" height="41" viewBox="0 0 173 41" fill="none" xmlns="http://www.w3.org/2000/svg">
<path d="M62.8833 30V15.624H57.2913V13.08H71.5713V15.624H65.9793V30H62.8833ZM71.6197 30V20.976C71.6197 20.464 71.6037 19.944 71.5717 19.416C71.5557 18.888 71.5157 18.376 71.4517 17.88H74.3557L74.6917 21.192H74.2117C74.3717 20.392 74.6357 19.728 75.0037 19.2C75.3877 18.672 75.8517 18.28 76.3957 18.024C76.9397 17.768 77.5317 17.64 78.1717 17.64C78.4597 17.64 78.6917 17.656 78.8677 17.688C79.0437 17.704 79.2197 17.744 79.3957 17.808L79.3717 20.448C79.0677 20.32 78.8037 20.24 78.5797 20.208C78.3717 20.176 78.1077 20.16 77.7877 20.16C77.0997 20.16 76.5157 20.304 76.0357 20.592C75.5717 20.88 75.2197 21.28 74.9797 21.792C74.7557 22.304 74.6437 22.888 74.6437 23.544V30H71.6197ZM85.6283 30.24C84.5723 30.24 83.6443 29.992 82.8443 29.496C82.0443 28.984 81.4203 28.256 80.9723 27.312C80.5243 26.368 80.3003 25.24 80.3003 23.928C80.3003 22.616 80.5243 21.496 80.9723 20.568C81.4203 19.624 82.0443 18.904 82.8443 18.408C83.6443 17.896 84.5723 17.64 85.6283 17.64C86.6523 17.64 87.5483 17.896 88.3163 18.408C89.1003 18.904 89.6203 19.576 89.8763 20.424H89.6123L89.8763 17.88H92.7563C92.7083 18.376 92.6603 18.88 92.6123 19.392C92.5803 19.904 92.5643 20.408 92.5643 20.904V30H89.5883L89.5643 27.504H89.8523C89.5963 28.336 89.0763 29 88.2923 29.496C87.5083 29.992 86.6203 30.24 85.6283 30.24ZM86.4683 27.936C87.4123 27.936 88.1723 27.608 88.7483 26.952C89.3243 26.28 89.6123 25.272 89.6123 23.928C89.6123 22.584 89.3243 21.584 88.7483 20.928C88.1723 20.272 87.4123 19.944 86.4683 19.944C85.5243 19.944 84.7643 20.272 84.1883 20.928C83.6123 21.584 83.3243 22.584 83.3243 23.928C83.3243 25.272 83.6043 26.28 84.1643 26.952C84.7403 27.608 85.5083 27.936 86.4683 27.936ZM96.6472 30V20.136H94.3192V17.88H97.4872L96.6472 18.648V16.8C96.6472 15.296 97.0312 14.16 97.7992 13.392C98.5832 12.624 99.7272 12.24 101.231 12.24C101.583 12.24 101.951 12.264 102.335 12.312C102.735 12.36 103.079 12.448 103.367 12.576V14.928C103.159 14.848 102.911 14.784 102.623 14.736C102.335 14.688 102.055 14.664 101.783 14.664C101.367 14.664 100.991 14.744 100.655 14.904C100.335 15.064 100.079 15.312 99.8872 15.648C99.7112 15.968 99.6232 16.4 99.6232 16.944V18.408L99.1912 17.88H102.815V20.136H99.6472V30H96.6472ZM109.23 30.24C108.174 30.24 107.246 29.992 106.446 29.496C105.646 28.984 105.022 28.256 104.574 27.312C104.126 26.368 103.902 25.24 103.902 23.928C103.902 22.616 104.126 21.496 104.574 20.568C105.022 19.624 105.646 18.904 106.446 18.408C107.246 17.896 108.174 17.64 109.23 17.64C110.254 17.64 111.15 17.896 111.918 18.408C112.702 18.904 113.222 19.576 113.478 20.424H113.214L113.478 17.88H116.358C116.31 18.376 116.262 18.88 116.214 19.392C116.182 19.904 116.166 20.408 116.166 20.904V30H113.19L113.166 27.504H113.454C113.198 28.336 112.678 29 111.894 29.496C111.11 29.992 110.222 30.24 109.23 30.24ZM110.07 27.936C111.014 27.936 111.774 27.608 112.35 26.952C112.926 26.28 113.214 25.272 113.214 23.928C113.214 22.584 112.926 21.584 112.35 20.928C111.774 20.272 111.014 19.944 110.07 19.944C109.126 19.944 108.366 20.272 107.79 20.928C107.214 21.584 106.926 22.584 106.926 23.928C106.926 25.272 107.206 26.28 107.766 26.952C108.342 27.608 109.11 27.936 110.07 27.936ZM119.433 30V12.336H122.433V30H119.433ZM131.307 35.376C130.187 35.376 129.171 35.256 128.259 35.016C127.363 34.776 126.563 34.408 125.859 33.912L126.507 31.752C126.971 32.056 127.451 32.304 127.947 32.496C128.443 32.688 128.955 32.832 129.483 32.928C130.011 33.024 130.547 33.072 131.091 33.072C132.211 33.072 133.043 32.792 133.587 32.232C134.147 31.688 134.427 30.904 134.427 29.88V26.976H134.667C134.411 27.808 133.891 28.472 133.107 28.968C132.339 29.464 131.451 29.712 130.443 29.712C129.355 29.712 128.403 29.472 127.587 28.992C126.787 28.496 126.163 27.792 125.715 26.88C125.267 25.968 125.043 24.896 125.043 23.664C125.043 22.432 125.267 21.368 125.715 20.472C126.163 19.56 126.787 18.864 127.587 18.384C128.403 17.888 129.355 17.64 130.443 17.64C131.467 17.64 132.355 17.888 133.107 18.384C133.875 18.864 134.387 19.52 134.643 20.352L134.427 20.208L134.667 17.88H137.571C137.507 18.376 137.459 18.88 137.427 19.392C137.395 19.904 137.379 20.408 137.379 20.904V29.52C137.379 31.424 136.859 32.872 135.819 33.864C134.795 34.872 133.291 35.376 131.307 35.376ZM131.259 27.408C132.219 27.408 132.979 27.088 133.539 26.448C134.115 25.792 134.403 24.864 134.403 23.664C134.403 22.464 134.115 21.544 133.539 20.904C132.979 20.264 132.219 19.944 131.259 19.944C130.283 19.944 129.507 20.264 128.931 20.904C128.355 21.544 128.067 22.464 128.067 23.664C128.067 24.864 128.355 25.792 128.931 26.448C129.507 27.088 130.283 27.408 131.259 27.408ZM145.3 30.24C144.244 30.24 143.316 29.992 142.516 29.496C141.716 28.984 141.092 28.256 140.644 27.312C140.196 26.368 139.972 25.24 139.972 23.928C139.972 22.616 140.196 21.496 140.644 20.568C141.092 19.624 141.716 18.904 142.516 18.408C143.316 17.896 144.244 17.64 145.3 17.64C146.324 17.64 147.22 17.896 147.988 18.408C148.772 18.904 149.292 19.576 149.548 20.424H149.284L149.548 17.88H152.428C152.38 18.376 152.332 18.88 152.284 19.392C152.252 19.904 152.236 20.408 152.236 20.904V30H149.26L149.236 27.504H149.524C149.268 28.336 148.748 29 147.964 29.496C147.18 29.992 146.292 30.24 145.3 30.24ZM146.14 27.936C147.084 27.936 147.844 27.608 148.42 26.952C148.996 26.28 149.284 25.272 149.284 23.928C149.284 22.584 148.996 21.584 148.42 20.928C147.844 20.272 147.084 19.944 146.14 19.944C145.196 19.944 144.436 20.272 143.86 20.928C143.284 21.584 142.996 22.584 142.996 23.928C142.996 25.272 143.276 26.28 143.836 26.952C144.412 27.608 145.18 27.936 146.14 27.936ZM155.479 30V20.976C155.479 20.464 155.463 19.944 155.431 19.416C155.415 18.888 155.375 18.376 155.311 17.88H158.215L158.551 21.192H158.071C158.231 20.392 158.495 19.728 158.863 19.2C159.247 18.672 159.711 18.28 160.255 18.024C160.799 17.768 161.391 17.64 162.031 17.64C162.319 17.64 162.551 17.656 162.727 17.688C162.903 17.704 163.079 17.744 163.255 17.808L163.231 20.448C162.927 20.32 162.663 20.24 162.439 20.208C162.231 20.176 161.967 20.16 161.647 20.16C160.959 20.16 160.375 20.304 159.895 20.592C159.431 20.88 159.079 21.28 158.839 21.792C158.615 22.304 158.503 22.888 158.503 23.544V30H155.479Z" fill="#233348"/>
<ellipse cx="22.1035" cy="20.5" rx="22.0289" ry="20.5" fill="#458FF6"/>
<path d="M20.3881 31V15.426H14.3301V12.67H29.8001V15.426H23.7421V31H20.3881Z" fill="white"/>
</svg>
